<?xml version="1.0" encoding="UTF-8" standalone="no"?>
<!-- Generator: Adobe Illustrator 18.1.1, SVG Export Plug-In . SVG Version: 6.00 Build 0)  -->

<svg
   xmlns:dc="http://purl.org/dc/elements/1.1/"
   xmlns:cc="http://creativecommons.org/ns#"
   xmlns:rdf="http://www.w3.org/1999/02/22-rdf-syntax-ns#"
   xmlns:svg="http://www.w3.org/2000/svg"
   xmlns="http://www.w3.org/2000/svg"
   xmlns:sodipodi="http://sodipodi.sourceforge.net/DTD/sodipodi-0.dtd"
   xmlns:inkscape="http://www.inkscape.org/namespaces/inkscape"
   version="1.1"
   id="Layer_1"
   x="0px"
   y="0px"
   viewBox="0 0 1296 200"
   enable-background="new 0 0 1296 1728"
   xml:space="preserve"
   inkscape:version="0.91 r13725"
   sodipodi:docname="logo.svg"
   width="1296"
   height="200"><metadata
     id="metadata23"><rdf:RDF><cc:Work
         rdf:about=""><dc:format>image/svg+xml</dc:format><dc:type
           rdf:resource="http://purl.org/dc/dcmitype/StillImage" /><dc:title></dc:title></cc:Work></rdf:RDF></metadata><defs
     id="defs21" /><sodipodi:namedview
     pagecolor="#ffffff"
     bordercolor="#666666"
     borderopacity="1"
     objecttolerance="10"
     gridtolerance="10"
     guidetolerance="10"
     inkscape:pageopacity="0"
     inkscape:pageshadow="2"
     inkscape:window-width="1309"
     inkscape:window-height="783"
     id="namedview19"
     showgrid="false"
     inkscape:zoom="0.13657407"
     inkscape:cx="648"
     inkscape:cy="864"
     inkscape:window-x="75"
     inkscape:window-y="34"
     inkscape:window-maximized="0"
     inkscape:current-layer="Layer_1" /><g
     id="g3"
     transform="translate(0,-751.86441)"><path
       d="m 66.8,930.7 c -49.5,0 -64.8,-43 -64.8,-70 0,-39.4 26.5,-68.4 63.1,-68.4 19.3,0 31,7.2 34.2,9.7 l 0,-9.7 21.3,0 0,53.9 -21.2,0 0,-21.7 c -10.1,-6.4 -21.7,-10.9 -33.8,-10.9 -16.5,0 -41.8,11.7 -41.8,47.5 0,24.5 12.5,48.3 42.6,48.3 18.5,0 35,-10.1 42.6,-15.3 l 12.9,15.7 c -18.1,16.1 -46.3,20.9 -55.1,20.9 z"
       id="path5"
       inkscape:connector-curvature="0"
       style="fill:#d64a27" /><path
       d="m 268.7,930.7 c -29.8,0 -61.5,-22.1 -61.5,-68.4 0,-35.8 23.3,-69.6 61.5,-69.6 41,0 61.1,36.6 61.1,69.2 0,51.9 -38.2,68.8 -61.1,68.8 z m 0,-116.7 c -26.5,0 -39.8,25.3 -39.8,47.5 0,23.3 13.3,47.9 39.8,47.9 29.8,0 40.2,-29.4 40.2,-48.7 0,-16.5 -10.1,-46.7 -40.2,-46.7 z"
       id="path7"
       inkscape:connector-curvature="0"
       style="fill:#d64a27" /><path
       d="m 529.7,816.5 0,111 -20.5,0 -59.9,-94.5 0,73.2 22.5,0 0,21.7 -61.5,0 0,-21.7 17.7,0 0,-89.7 -17.7,0 0,-21.7 41.4,0 56.3,92.1 0,-70.4 -21.7,0 0,-21.7 60.7,0 0,21.7 -17.3,0 z"
       id="path9"
       inkscape:connector-curvature="0"
       style="fill:#d64a27" /><path
       d="m 609.7,878.8 0,-33 100.1,-51.9 0,26.5 -79.2,41.8 79.2,42.6 0,26.1 -100.1,-52.1 z"
       id="path11"
       inkscape:connector-curvature="0"
       style="fill:#dc7c2e" /><path
       d="m 802,928.7 -18.1,-6 87.7,-129.5 18.5,6 -88.1,129.5 z"
       id="path13"
       inkscape:connector-curvature="0"
       style="fill:#dc7c2e" /><path
       d="m 1023.2,930.7 c -17.3,0 -27.8,-6.4 -32.2,-8.4 l 0,8.4 -21.3,0 0,-48.7 21.3,0 0,17.7 c 9.7,5.6 20.5,9.7 32.2,9.7 22.5,0 31.4,-8.4 31.4,-19.7 0,-10.1 -7.2,-14.1 -18.9,-14.9 -17.3,-1.2 -35.4,-1.2 -48.7,-11.3 -9.2,-7.2 -14.1,-17.3 -14.1,-28.2 0,-18.9 17.3,-42.6 50.3,-42.6 9.3,0 18.5,2 26.1,5.2 l 0,-5.6 21.3,0 0,49.9 -21.3,0 0,-22.1 c -7.6,-3.6 -16.5,-6.4 -25.3,-6.4 -18.9,0 -29.8,11.3 -29.8,21.3 0,14.1 15.3,16.5 21.3,17.3 18.9,2.8 42.2,0.4 54.3,18.5 3.6,5.2 5.2,12.5 5.2,18.9 0.8,25.3 -22.9,41 -51.8,41 z"
       id="path15"
       inkscape:connector-curvature="0"
       style="fill:#d64a27" /><path
       d="m 1172,927.9 0,-21.7 18.5,0 0,-89.7 -17.7,0 0,-21.7 116.2,0 0,49.1 -21.7,0 0,-27.3 -55.5,0 0,33 24.5,0 0,-15.3 21.7,0 0,51.7 -21.7,0 0,-15.3 -24.5,0 0,35.4 55.5,0 0,-26.9 21.7,0 0,48.7 -117,0 z"
       id="path17"
       inkscape:connector-curvature="0"
       style="fill:#d64a27" /></g></svg>