<?xml version="1.0" encoding="utf-8"?>
<!-- Generator: Adobe Illustrator 18.1.1, SVG Export Plug-In . SVG Version: 6.00 Build 0)  -->
<svg version="1.1" id="Layer_1" xmlns="http://www.w3.org/2000/svg" xmlns:xlink="http://www.w3.org/1999/xlink" x="0px" y="0px"
	 viewBox="0.8 6.5 32.3 36.5" enable-background="new 0.8 6.5 32.3 36.5" xml:space="preserve">
<g>
	<polygon fill="#E49A37" points="6.1,18.7 2.2,18.9 2.2,16.3 4.7,14.9 	"/>
	<polygon fill="#A3AB5F" points="16.7,13.5 16.5,13.6 12.2,11.1 12.8,10.2 14.8,9 	"/>
	<polygon fill="#859868" points="19.8,9.5 17.1,13.5 16.9,13.4 16.7,13.5 16.7,13.5 14.8,9 16.9,7.8 	"/>
	<polygon fill="#ADB457" points="12.8,10.2 12.2,11.1 11.6,10.9 	"/>
	<polygon fill="#C7BB38" points="9.7,14.6 6.9,14.2 6.8,13.7 8.6,12.6 	"/>
	<polygon fill="#69869E" points="30.8,16.7 27.4,18.9 28.7,14.6 30.6,15.7 30.6,15.7 	"/>
	<polygon fill="#C5BE57" points="12.2,11.1 9.7,14.6 8.6,12.6 11.6,10.9 	"/>
	<polygon fill="#6C7F7D" points="28.7,14.6 27.4,18.9 23.1,14.9 26.4,13.3 26.4,13.3 	"/>
	<polygon fill="#C8B631" points="6.9,14.2 5.9,14.2 6.8,13.7 	"/>
	<polygon fill="#797A70" points="27.4,18.9 24.7,20.5 28.7,21.9 	"/>
	<polygon fill="#7F8D6E" points="23.1,14.9 18,14 17.1,13.5 19.8,9.5 21.9,10.7 	"/>
	<polygon fill="#608792" points="25,12.5 23.1,14.9 21.9,10.7 	"/>
	<polygon fill="#5B839F" points="26.4,13.3 23.1,14.9 25,12.5 	"/>
	<polygon fill="#CAA47A" points="24.7,20.5 18.4,25.3 26.7,27.2 	"/>
	<polygon fill="#547EB6" points="31.6,16.3 31.6,16.7 30.8,16.7 30.6,15.7 	"/>
	<polygon fill="#D49A31" points="6.9,14.2 6.1,18.7 4.7,14.9 5.9,14.2 5.9,14.2 	"/>
	<polygon fill="#DCA639" points="9.7,14.6 6.9,14.2 6.1,18.7 	"/>
	<polygon fill="#CEB65F" points="18.8,19.8 12.5,19.2 13.4,18.1 13.4,18.1 13.4,18.1 16.9,16.1 17.8,16.6 	"/>
	<polygon fill="#DFA641" points="11,16.8 7.5,18.8 6.1,18.7 9.7,14.6 	"/>
	<polygon fill="#DFA641" points="12.5,19.2 11.6,19.1 12.3,18.8 	"/>
	<polygon fill="#C8B95A" points="13.4,18.1 12.5,19.2 12.5,18.6 	"/>
	<polygon fill="#C8B95A" points="16.5,13.6 12.4,16 12.2,11.1 	"/>
	<polygon fill="#CAB74E" points="12.4,16 11,16.8 9.7,14.6 12.2,11.1 	"/>
	<polygon fill="#CAB74E" points="12.5,19.2 12.3,18.8 12.5,18.6 	"/>
	<polygon fill="#727C81" points="30.8,16.7 27.4,18.9 28.7,21.9 	"/>
	<polygon fill="#99916E" points="23.8,17.4 21.9,16.3 23.1,14.9 	"/>
	<polygon fill="#99916E" points="24.7,20.5 18.8,19.8 20.3,18.1 24.4,20.4 24.6,20.3 	"/>
	<polygon fill="#A5A173" points="20.3,18.1 18.8,19.8 17.8,16.6 	"/>
	<polygon fill="#A5A173" points="23.1,14.9 21.9,16.3 18,14 	"/>
	<polygon fill="#838675" points="27.4,18.9 24.7,20.5 24.6,20.3 26.8,19.1 23.8,17.4 23.1,14.9 	"/>
	<polygon fill="#C7AB71" points="24.7,20.5 18.8,19.8 18.4,25.3 	"/>
	<polygon fill="#EB9639" points="7,20.3 7,24.1 3.2,24.4 6.1,18.7 	"/>
	<polygon fill="#9E8C7F" points="28.7,21.9 24.7,20.5 26.7,27.2 	"/>
	<polygon fill="#E7AE53" points="7.5,18.8 7,19.1 7,20.3 6.1,18.7 	"/>
	<polygon fill="#E7AE53" points="12.5,19.2 9.3,23.4 9.3,20.5 11.6,19.1 	"/>
	<polygon fill="#E17C27" points="6.1,18.7 2.2,22 2.2,18.9 	"/>
	<polygon fill="#DC7C2E" points="6.1,18.7 3.2,24.4 2.2,23.3 2.2,22 	"/>
	<polygon fill="#E8B86F" points="23,30.1 22.3,30.4 22.3,30.4 18.2,29.8 18.4,25.3 	"/>
	<polygon fill="#687582" points="31.6,18.3 31.6,23.4 28.7,21.9 30.8,16.7 	"/>
	<polygon fill="#E2B35D" points="18.8,19.8 12.5,19.2 18.4,25.3 	"/>
	<polygon fill="#5B7098" points="31.6,16.7 31.6,18.3 30.8,16.7 	"/>
	<polygon fill="#A18583" points="28.7,21.9 26.7,27.2 30.9,29.4 	"/>
	<polygon fill="#D6A46F" points="26.7,27.2 24.7,29.4 24.4,29.2 23,30.1 18.4,25.3 	"/>
	<polygon fill="#837586" points="31.6,23.4 31.6,28.7 30.9,29.4 28.7,21.9 	"/>
	<polygon fill="#F1AE4C" points="12.5,19.2 10.5,26.6 9.3,24.6 9.3,23.4 	"/>
	<polygon fill="#ECB861" points="18.4,25.3 12.5,19.2 10.5,26.6 	"/>
	<polygon fill="#E86F3A" points="7,24.1 7,25.6 5,27.4 3.2,24.4 	"/>
	<polygon fill="#EB823F" points="7,25.6 7,27.1 5,27.4 	"/>
	<polygon fill="#EB823F" points="10.5,26.6 9.3,26.8 9.3,24.6 	"/>
	<polygon fill="#EBA552" points="18.4,25.3 10.5,26.6 11.8,28.4 	"/>
	<polygon fill="#D44F28" points="3.2,24.4 2.2,26.8 2.2,25.3 	"/>
	<polygon fill="#D24D27" points="5,27.4 2.2,30.2 2.2,26.8 3.2,24.4 	"/>
	<polygon fill="#DB5326" points="3.2,24.4 2.2,25.3 2.2,23.3 	"/>
	<polygon fill="#F0AF5B" points="18.4,25.3 11.8,28.4 18.2,29.8 	"/>
	<polygon fill="#847395" points="31.6,28.7 31.6,29.4 30.9,29.4 	"/>
	<polygon fill="#E97242" points="7,27.1 7,29.7 5,27.4 	"/>
	<polygon fill="#E97242" points="10.5,26.6 9.3,28.4 9.3,26.8 	"/>
	<polygon fill="#E86F47" points="11.8,28.4 9.9,29.5 9.3,29.2 9.3,28.4 10.5,26.6 	"/>
	<polygon fill="#C29387" points="30.9,29.4 26.7,27.2 27.8,31.4 	"/>
	<polygon fill="#C99974" points="25.9,31.1 26.8,30.6 24.7,29.4 26.7,27.2 27.8,31.4 	"/>
	<polygon fill="#DA5427" points="7.4,30.8 2.2,32 2.2,30.2 5,27.4 7,29.7 7,30.6 	"/>
	<polygon fill="#C49180" points="30.7,33.9 27.9,35.4 27.8,31.4 	"/>
	<polygon fill="#EE7C56" points="12.1,33.5 10.8,34.3 11.1,32.9 	"/>
	<polygon fill="#EE7C56" points="18.2,29.8 14.4,32.1 11.5,30.4 11.8,28.4 	"/>
	<polygon fill="#EA764B" points="11.1,32.9 10.8,34.3 8.4,31.3 	"/>
	<polygon fill="#EA764B" points="11.8,28.4 11.5,30.4 9.9,29.5 	"/>
	<polygon fill="#EAB06D" points="21.3,33.7 20.7,34.6 20.5,34.2 	"/>
	<polygon fill="#EAB06D" points="22.3,30.4 19.4,32.1 18.2,29.8 	"/>
	<polygon fill="#A881A1" points="31.6,29.4 31.6,31.1 30.9,29.4 	"/>
	<polygon fill="#BD8C8D" points="31.6,31.1 31.6,33.3 30.7,33.9 27.8,31.4 30.9,29.4 	"/>
	<polygon fill="#DA4F27" points="7.7,30.9 5.4,35.2 2.2,33.3 2.2,32 7.4,30.8 7.4,30.8 	"/>
	<polygon fill="#E36B46" points="12.1,39.1 17.8,39.3 10.8,34.3 11,38.4 	"/>
	<polygon fill="#DF5528" points="11,38.4 9.5,37.5 10.8,34.3 	"/>
	<polygon fill="#E6A06D" points="23.5,32.5 23.4,38.1 23,38.3 23,38.3 20.7,34.6 21.3,33.7 21.3,33.7 21.3,33.7 	"/>
	<polygon fill="#E2A976" points="27.8,31.4 24.2,37.6 24.2,37.6 23.4,38.1 23.5,32.5 25.9,31.1 	"/>
	<polygon fill="#E0A27D" points="27.9,35.4 24.2,37.6 27.8,31.4 	"/>
	<polygon fill="#E8806A" points="23,38.3 21.6,39.1 21.6,39.1 21.6,39.1 17.8,39.3 20.7,34.6 	"/>
	<polygon fill="#DA5327" points="10.8,34.3 9.5,37.5 8.6,37 7.9,31 8.4,31.3 	"/>
	<polygon fill="#D64A27" points="8.6,37 5.4,35.2 7.7,30.9 7.9,31 	"/>
	<polygon fill="#F3805F" points="17.9,35.7 17.8,39.3 10.8,34.3 12.1,33.5 16.9,36.3 	"/>
	<polygon fill="#F3805F" points="18.2,29.8 18.1,32.9 16.9,33.6 14.4,32.1 	"/>
	<polygon fill="#EA8067" points="19.4,32.1 18.1,32.9 18.2,29.8 	"/>
	<polygon fill="#EA8067" points="20.7,34.6 17.8,39.3 17.9,35.7 20.5,34.2 	"/>
	<polygon fill="#E36243" points="17.9,41.3 16.9,41.8 15.3,40.9 17.8,39.3 	"/>
	<polygon fill="#D45129" points="17.8,39.3 15.3,40.9 12.1,39.1 	"/>
	<polygon fill="#E1745D" points="21.6,39.1 17.9,41.3 17.8,39.3 	"/>
</g>
</svg>
