<?xml version="1.0" encoding="utf-8"?>
<!-- Generator: Adobe Illustrator 18.1.1, SVG Export Plug-In . SVG Version: 6.00 Build 0)  -->
<svg version="1.1" id="Layer_1" xmlns="http://www.w3.org/2000/svg" xmlns:xlink="http://www.w3.org/1999/xlink" x="0px" y="0px"
	 viewBox="0 0 1296 1728" enable-background="new 0 0 1296 1728" xml:space="preserve">
<g>
	<path fill="#D64A27" d="M66.8,930.7c-49.5,0-64.8-43-64.8-70c0-39.4,26.5-68.4,63.1-68.4c19.3,0,31,7.2,34.2,9.7v-9.7h21.3v53.9
		H99.4v-21.7c-10.1-6.4-21.7-10.9-33.8-10.9c-16.5,0-41.8,11.7-41.8,47.5c0,24.5,12.5,48.3,42.6,48.3c18.5,0,35-10.1,42.6-15.3
		l12.9,15.7C103.8,925.9,75.6,930.7,66.8,930.7z"/>
	<path fill="#D64A27" d="M268.7,930.7c-29.8,0-61.5-22.1-61.5-68.4c0-35.8,23.3-69.6,61.5-69.6c41,0,61.1,36.6,61.1,69.2
		C329.8,913.8,291.6,930.7,268.7,930.7z M268.7,814c-26.5,0-39.8,25.3-39.8,47.5c0,23.3,13.3,47.9,39.8,47.9
		c29.8,0,40.2-29.4,40.2-48.7C308.9,844.2,298.8,814,268.7,814z"/>
	<path fill="#D64A27" d="M529.7,816.5v111h-20.5L449.3,833v73.2h22.5v21.7h-61.5v-21.7h17.7v-89.7h-17.7v-21.7h41.4l56.3,92.1v-70.4
		h-21.7v-21.7H547v21.7H529.7z"/>
	<path fill="#DC7C2E" d="M609.7,878.8v-33l100.1-51.9v26.5l-79.2,41.8l79.2,42.6v26.1L609.7,878.8z"/>
	<path fill="#DC7C2E" d="M802,928.7l-18.1-6l87.7-129.5l18.5,6L802,928.7z"/>
	<path fill="#D64A27" d="M1023.2,930.7c-17.3,0-27.8-6.4-32.2-8.4v8.4h-21.3V882H991v17.7c9.7,5.6,20.5,9.7,32.2,9.7
		c22.5,0,31.4-8.4,31.4-19.7c0-10.1-7.2-14.1-18.9-14.9c-17.3-1.2-35.4-1.2-48.7-11.3c-9.2-7.2-14.1-17.3-14.1-28.2
		c0-18.9,17.3-42.6,50.3-42.6c9.3,0,18.5,2,26.1,5.2v-5.6h21.3v49.9h-21.3v-22.1c-7.6-3.6-16.5-6.4-25.3-6.4
		c-18.9,0-29.8,11.3-29.8,21.3c0,14.1,15.3,16.5,21.3,17.3c18.9,2.8,42.2,0.4,54.3,18.5c3.6,5.2,5.2,12.5,5.2,18.9
		C1075.8,915,1052.1,930.7,1023.2,930.7z"/>
	<path fill="#D64A27" d="M1172,927.9v-21.7h18.5v-89.7h-17.7v-21.7H1289v49.1h-21.7v-27.3h-55.5v33h24.5v-15.3h21.7V886h-21.7v-15.3
		h-24.5v35.4h55.5v-26.9h21.7v48.7H1172z"/>
</g>
</svg>
