<?xml version="1.0" encoding="utf-8"?>
<!-- Generator: Adobe Illustrator 17.1.0, SVG Export Plug-In . SVG Version: 6.00 Build 0)  -->
<!DOCTYPE svg PUBLIC "-//W3C//DTD SVG 1.1//EN" "http://www.w3.org/Graphics/SVG/1.1/DTD/svg11.dtd">
<svg version="1.1" id="Layer_1" xmlns="http://www.w3.org/2000/svg" xmlns:xlink="http://www.w3.org/1999/xlink" x="0px" y="0px"
	 viewBox="0 0 535 191" enable-background="new 0 0 535 191" xml:space="preserve">
<g>
	<polygon fill="#E49A37" points="22.1,61.9 1,63.1 1,49.1 14.3,41.4 	"/>
	<polygon fill="#A3AB5F" points="78.6,34 77.5,34.6 54.4,21.4 57.6,16.4 68.6,10.1 	"/>
	<polygon fill="#859868" points="95.4,12.7 80.6,33.9 79.8,33.4 78.6,34 78.6,34 68.6,10.1 79.8,3.6 	"/>
	<polygon fill="#ADB457" points="57.6,16.4 54.4,21.4 51.5,19.9 	"/>
	<polygon fill="#C7BB38" points="41.2,39.8 26.1,37.9 25.7,34.8 35.3,29.3 	"/>
	<polygon fill="#69869E" points="154.1,51 135.9,62.6 143,40.1 153,45.9 153,45.9 	"/>
	<polygon fill="#C5BE57" points="54.4,21.4 41.2,39.8 35.3,29.3 51.5,19.9 	"/>
	<polygon fill="#6C7F7D" points="143,40.1 135.9,62.6 112.9,41.6 130.3,32.8 130.3,32.8 	"/>
	<polygon fill="#C8B631" points="26.1,37.9 20.7,37.7 25.7,34.8 	"/>
	<polygon fill="#797A70" points="135.9,62.6 121.2,71.2 143,78.7 	"/>
	<polygon fill="#7F8D6E" points="112.9,41.6 85.7,36.8 80.6,33.9 95.4,12.7 106.3,18.9 	"/>
	<polygon fill="#608792" points="123.3,28.7 112.9,41.6 106.3,18.9 	"/>
	<polygon fill="#5B839F" points="130.3,32.8 112.9,41.6 123.3,28.7 	"/>
	<polygon fill="#CAA47A" points="121.2,71.2 87.6,97.1 131.9,107.2 	"/>
	<polygon fill="#547EB6" points="158.5,49.1 158.5,51 154.1,51 153,45.9 	"/>
	<polygon fill="#D49A31" points="26.1,37.9 22.1,61.9 14.3,41.4 20.7,37.7 20.7,37.7 	"/>
	<polygon fill="#DCA639" points="41.2,39.8 26.1,37.9 22.1,61.9 	"/>
	<polygon fill="#CEB65F" points="90.1,67.5 56.3,64.5 60.8,58.8 60.8,58.8 60.8,58.8 79.8,47.9 84.4,50.5 	"/>
	<polygon fill="#DFA641" points="48.3,51.5 29.4,62.4 22.1,61.9 41.2,39.8 	"/>
	<polygon fill="#DFA641" points="56.3,64.5 51.6,64.1 54.9,62.2 	"/>
	<polygon fill="#C8B95A" points="60.8,58.8 56.3,64.5 56.1,61.5 	"/>
	<polygon fill="#C8B95A" points="77.5,34.6 55.5,47.3 54.4,21.4 	"/>
	<polygon fill="#CAB74E" points="55.5,47.3 48.3,51.5 41.2,39.8 54.4,21.4 	"/>
	<polygon fill="#CAB74E" points="56.3,64.5 54.9,62.2 56.1,61.5 	"/>
	<polygon fill="#727C81" points="154.1,51 135.9,62.6 143,78.7 	"/>
	<polygon fill="#99916E" points="116.5,54.6 106.5,48.8 112.9,41.6 	"/>
	<polygon fill="#99916E" points="121.2,71.2 90.1,67.5 98.1,58.4 119.8,71 120.9,70.4 	"/>
	<polygon fill="#A5A173" points="98.1,58.4 90.1,67.5 84.4,50.5 	"/>
	<polygon fill="#A5A173" points="112.9,41.6 106.5,48.8 85.7,36.8 	"/>
	<polygon fill="#838675" points="135.9,62.6 121.2,71.2 120.9,70.4 132.6,63.9 116.5,54.6 112.9,41.6 	"/>
	<polygon fill="#C7AB71" points="121.2,71.2 90.1,67.5 87.6,97.1 	"/>
	<polygon fill="#EB9639" points="26.7,70.4 26.7,90.5 6.4,92.2 22.1,61.9 	"/>
	<polygon fill="#9E8C7F" points="143,78.7 121.2,71.2 131.9,107.2 	"/>
	<polygon fill="#E7AE53" points="29.4,62.4 26.7,64 26.7,70.4 22.1,61.9 	"/>
	<polygon fill="#E7AE53" points="56.3,64.5 39.3,86.8 39.3,71.2 51.6,64.1 	"/>
	<polygon fill="#E17C27" points="22.1,61.9 1,79.3 1,63.1 	"/>
	<polygon fill="#DC7C2E" points="22.1,61.9 6.4,92.2 1,86.5 1,79.3 	"/>
	<polygon fill="#E8B86F" points="112.2,122.6 108.8,124.5 108.8,124.5 86.7,121 87.6,97.1 	"/>
	<polygon fill="#687582" points="158.5,59.9 158.5,87.2 143,78.7 154.1,51 	"/>
	<polygon fill="#E2B35D" points="90.1,67.5 56.3,64.5 87.6,97.1 	"/>
	<polygon fill="#5B7098" points="158.5,51 158.5,59.9 154.1,51 	"/>
	<polygon fill="#A18583" points="143,78.7 131.9,107.2 154.7,118.8 	"/>
	<polygon fill="#D6A46F" points="131.9,107.2 121.2,118.8 120,118.1 112.2,122.6 87.6,97.1 	"/>
	<polygon fill="#837586" points="158.5,87.2 158.5,115.2 154.7,118.8 143,78.7 	"/>
	<polygon fill="#F1AE4C" points="56.3,64.5 45.5,104.2 39.3,93.3 39.3,86.8 	"/>
	<polygon fill="#ECB861" points="87.6,97.1 56.3,64.5 45.5,104.2 	"/>
	<polygon fill="#E86F3A" points="26.7,90.5 26.7,98.8 16,108.3 6.4,92.2 	"/>
	<polygon fill="#EB823F" points="26.7,98.8 26.7,106.8 16,108.3 	"/>
	<polygon fill="#EB823F" points="45.5,104.2 39.3,105.1 39.3,93.3 	"/>
	<polygon fill="#EBA552" points="87.6,97.1 45.5,104.2 52.3,113.9 	"/>
	<polygon fill="#D44F28" points="6.4,92.2 1,105.2 1,97.2 	"/>
	<polygon fill="#D24D27" points="16,108.3 1,123.1 1,105.2 6.4,92.2 	"/>
	<polygon fill="#DB5326" points="6.4,92.2 1,97.2 1,86.5 	"/>
	<polygon fill="#F0AF5B" points="87.6,97.1 52.3,113.9 86.7,121 	"/>
	<polygon fill="#847395" points="158.5,115.2 158.5,119.2 154.7,118.8 	"/>
	<polygon fill="#E97242" points="26.7,106.8 26.7,120.9 16,108.3 	"/>
	<polygon fill="#E97242" points="45.5,104.2 39.3,113.5 39.3,105.1 	"/>
	<polygon fill="#E86F47" points="52.3,113.9 42.2,119.6 39.3,117.9 39.3,113.5 45.5,104.2 	"/>
	<polygon fill="#C29387" points="154.7,118.8 131.9,107.2 138.1,130 	"/>
	<polygon fill="#C99974" points="127.8,128 132.8,125.2 121.2,118.8 131.9,107.2 138.1,130 	"/>
	<polygon fill="#DA5427" points="28.8,126.4 1,132.7 1,123.1 16,108.3 26.7,120.9 26.7,125.2 	"/>
	<polygon fill="#C49180" points="153.3,143 138.8,151.4 138.1,130 	"/>
	<polygon fill="#EE7C56" points="54,140.9 47.3,145 48.5,137.7 	"/>
	<polygon fill="#EE7C56" points="86.7,121 66.2,133.5 50.6,124.5 52.3,113.9 	"/>
	<polygon fill="#EA764B" points="48.5,137.7 47.3,145 34,129.4 	"/>
	<polygon fill="#EA764B" points="52.3,113.9 50.6,124.5 42.2,119.6 	"/>
	<polygon fill="#EAB06D" points="103.2,142.3 99.9,146.9 98.9,144.8 	"/>
	<polygon fill="#EAB06D" points="108.8,124.5 93.1,133.6 86.7,121 	"/>
	<polygon fill="#A881A1" points="158.5,119.2 158.5,128.4 154.7,118.8 	"/>
	<polygon fill="#BD8C8D" points="158.5,128.4 158.5,140 153.3,143 138.1,130 154.7,118.8 	"/>
	<polygon fill="#DA4F27" points="30.3,127.3 18.3,150 1,140 1,132.7 28.8,126.4 28.9,126.4 	"/>
	<polygon fill="#E36B46" points="54.1,170.7 84.3,171.9 47.3,145 47.9,167.1 	"/>
	<polygon fill="#DF5528" points="47.9,167.1 39.9,162.5 47.3,145 	"/>
	<polygon fill="#E6A06D" points="114.9,135.5 114.5,165.5 112.2,166.8 112.1,166.8 99.9,146.9 103.2,142.3 103.2,142.3 103.2,142.3 
			"/>
	<polygon fill="#E2A976" points="138.1,130 118.8,163 118.7,163 114.5,165.5 114.9,135.5 127.8,128 	"/>
	<polygon fill="#E0A27D" points="138.8,151.4 118.8,163 138.1,130 	"/>
	<polygon fill="#E8806A" points="112.1,166.8 105,170.9 105,170.9 105,170.9 84.3,171.9 99.9,146.9 	"/>
	<polygon fill="#DA5327" points="47.3,145 39.9,162.5 35.3,159.8 31.3,127.8 34,129.4 	"/>
	<polygon fill="#D64A27" points="35.3,159.8 18.3,150 30.3,127.3 31.3,127.8 	"/>
	<polygon fill="#F3805F" points="85.2,152.6 84.3,171.9 47.3,145 54,140.9 79.8,155.8 	"/>
	<polygon fill="#F3805F" points="86.7,121 85.9,137.7 79.8,141.3 66.2,133.5 	"/>
	<polygon fill="#EA8067" points="93.1,133.6 85.9,137.7 86.7,121 	"/>
	<polygon fill="#EA8067" points="99.9,146.9 84.3,171.9 85.2,152.6 98.9,144.8 	"/>
	<polygon fill="#E36243" points="84.8,182.6 79.8,185.5 71.4,180.7 84.3,171.9 	"/>
	<polygon fill="#D45129" points="84.3,171.9 71.4,180.7 54.1,170.7 	"/>
	<polygon fill="#E1745D" points="105,170.9 84.8,182.6 84.3,171.9 	"/>
</g>
<g>
	<path fill="#D64A27" d="M229.3,113.4c-12.3,0-16.1-10.7-16.1-17.4c0-9.8,6.6-17,15.7-17c4.8,0,7.7,1.8,8.5,2.4V79h5.3v13.4h-5.3V87
		c-2.5-1.6-5.4-2.7-8.4-2.7c-4.1,0-10.4,2.9-10.4,11.8c0,6.1,3.1,12,10.6,12c4.6,0,8.7-2.5,10.6-3.8l3.2,3.9
		C238.5,112.2,231.5,113.4,229.3,113.4z"/>
	<path fill="#D64A27" d="M279.5,113.4c-7.4,0-15.3-5.5-15.3-17c0-8.9,5.8-17.3,15.3-17.3c10.2,0,15.2,9.1,15.2,17.2
		C294.7,109.2,285.2,113.4,279.5,113.4z M279.5,84.4c-6.6,0-9.9,6.3-9.9,11.8c0,5.8,3.3,11.9,9.9,11.9c7.4,0,10-7.3,10-12.1
		C289.5,91.9,287,84.4,279.5,84.4z"/>
	<path fill="#D64A27" d="M344.4,85v27.6h-5.1l-14.9-23.5v18.2h5.6v5.4h-15.3v-5.4h4.4V85h-4.4v-5.4h10.3l14,22.9V85h-5.4v-5.4h15.1
		V85H344.4z"/>
	<path fill="#DC7C2E" d="M364.3,100.5v-8.2l24.9-12.9V86l-19.7,10.4l19.7,10.6v6.5L364.3,100.5z"/>
	<path fill="#DC7C2E" d="M412.1,112.9l-4.5-1.5l21.8-32.2l4.6,1.5L412.1,112.9z"/>
	<path fill="#D64A27" d="M467.1,113.4c-4.3,0-6.9-1.6-8-2.1v2.1h-5.3v-12.1h5.3v4.4c2.4,1.4,5.1,2.4,8,2.4c5.6,0,7.8-2.1,7.8-4.9
		c0-2.5-1.8-3.5-4.7-3.7c-4.3-0.3-8.8-0.3-12.1-2.8c-2.3-1.8-3.5-4.3-3.5-7c0-4.7,4.3-10.6,12.5-10.6c2.3,0,4.6,0.5,6.5,1.3V79h5.3
		v12.4h-5.3v-5.5c-1.9-0.9-4.1-1.6-6.3-1.6c-4.7,0-7.4,2.8-7.4,5.3c0,3.5,3.8,4.1,5.3,4.3c4.7,0.7,10.5,0.1,13.5,4.6
		c0.9,1.3,1.3,3.1,1.3,4.7C480.2,109.5,474.3,113.4,467.1,113.4z"/>
	<path fill="#D64A27" d="M504.1,112.7v-5.4h4.6V85h-4.4v-5.4h28.9v12.2h-5.4V85H514v8.2h6.1v-3.8h5.4v12.9h-5.4v-3.8H514v8.8h13.8
		v-6.7h5.4v12.1H504.1z"/>
</g>
</svg>
